<?xml version="1.0" standalone="no"?>
<svg xmlns:xlink="http://www.w3.org/1999/xlink" id="wave" style="transform:rotate(180deg); transition: 0.3s" viewBox="0 0 1440 100" version="1.1" xmlns="http://www.w3.org/2000/svg"><defs><linearGradient id="sw-gradient-0" x1="0" x2="0" y1="1" y2="0"><stop stop-color="rgba(255, 249, 234, 1)" offset="0%"/><stop stop-color="rgba(255, 249, 234, 1)" offset="100%"/></linearGradient></defs><path style="transform:translate(0, 0px); opacity:1" fill="url(#sw-gradient-0)" d="M0,20L40,31.7C80,43,160,67,240,63.3C320,60,400,30,480,21.7C560,13,640,27,720,40C800,53,880,67,960,60C1040,53,1120,27,1200,28.3C1280,30,1360,60,1440,65C1520,70,1600,50,1680,50C1760,50,1840,70,1920,80C2000,90,2080,90,2160,75C2240,60,2320,30,2400,30C2480,30,2560,60,2640,71.7C2720,83,2800,77,2880,68.3C2960,60,3040,50,3120,40C3200,30,3280,20,3360,20C3440,20,3520,30,3600,33.3C3680,37,3760,33,3840,40C3920,47,4000,63,4080,65C4160,67,4240,53,4320,45C4400,37,4480,33,4560,41.7C4640,50,4720,70,4800,68.3C4880,67,4960,43,5040,36.7C5120,30,5200,40,5280,46.7C5360,53,5440,57,5520,55C5600,53,5680,47,5720,43.3L5760,40L5760,100L5720,100C5680,100,5600,100,5520,100C5440,100,5360,100,5280,100C5200,100,5120,100,5040,100C4960,100,4880,100,4800,100C4720,100,4640,100,4560,100C4480,100,4400,100,4320,100C4240,100,4160,100,4080,100C4000,100,3920,100,3840,100C3760,100,3680,100,3600,100C3520,100,3440,100,3360,100C3280,100,3200,100,3120,100C3040,100,2960,100,2880,100C2800,100,2720,100,2640,100C2560,100,2480,100,2400,100C2320,100,2240,100,2160,100C2080,100,2000,100,1920,100C1840,100,1760,100,1680,100C1600,100,1520,100,1440,100C1360,100,1280,100,1200,100C1120,100,1040,100,960,100C880,100,800,100,720,100C640,100,560,100,480,100C400,100,320,100,240,100C160,100,80,100,40,100L0,100Z"/></svg>